:version 1.10
:name ASF
:units
  mass 1
  length 1
  angle deg
:documentation
  ASF file generated by Kaydara
:root
  axis xyz
  order  tx ty tz rx ry rz
  position 0 0 0
  orientation 0 0 0
:bonedata
  begin
    id 1
    name RightUpLegDummy
    direction -0.718183 -0.695806 0.00816078
    length 4.904
    axis 0 0 0 xyz
  end
  begin
    id 2
    name RightUpLeg
    direction 3.53989e-006 -0.995788 0.0916897
    length 17.4976
    axis -3.49089 -0.000906621 0.000287158 xyz
    dof rx ry rz
  end
  begin
    id 3
    name RightLeg
    direction 0.00371093 -0.995096 -0.0988418
    length 16.5821
    axis 3.68512 0.0193738 -0.131023 xyz
    dof rx ry rz
  end
  begin
    id 4
    name RightFoot
    direction 0.000791514 -0.46099 0.887405
    length 3.77069
    axis 4.84075e-005 -0.120479 -0.188788 xyz
    dof rx ry rz
  end
  begin
    id 5
    name RightToes
    direction 0.00124746 -0.014064 0.9999
    length 3.85082
    axis 0.00048216 0.542163 -0.142577 xyz
    dof rx ry rz
  end
  begin
    id 6
    name SpineDummy
    direction 8.3039e-015 1 4.57515e-016
    length 4.6813
    axis 0 0 0 xyz
  end
  begin
    id 7
    name Spine
    direction -4.63632e-008 0.999988 0.00495137
    length 10.1015
    axis -0.00138897 0.000121419 3.25764e-006 xyz
    dof rx ry rz
  end
  begin
    id 8
    name Spine1
    direction 0 0 0
    length 0
    axis -0.00138896 0.000121452 2.39764e-006 xyz
    dof rx ry rz
  end
  begin
    id 9
    name HEadDummy
    direction -3.91456e-008 0.999999 0.00127422
    length 3.43865
    axis -0.00138896 0.000121452 2.39764e-006 xyz
  end
  begin
    id 10
    name HEad
    direction -0.0222688 0.980941 0.193023
    length 5.12695
    axis -0.00138895 0.000121452 2.39764e-006 xyz
    dof rx ry rz
  end
  begin
    id 11
    name LeftShoulder1Dummy
    direction 0.998891 -0.0402508 -0.0244456
    length 3.5433
    axis -0.00138896 0.000121452 2.39764e-006 xyz
  end
  begin
    id 12
    name LeftShoulder1
    direction 0.99951 -0.000327743 0.0313091
    length 4.05031
    axis -0.00138896 0.000121452 2.39764e-006 xyz
    dof rx ry rz
  end
  begin
    id 13
    name LeftArm
    direction 0.998561 -0.00100054 -0.0536182
    length 10.3537
    axis -23.1894 0.134784 0.96751 xyz
    dof rx ry rz
  end
  begin
    id 14
    name LeftForeArm
    direction 0.998903 0.00866434 0.046012
    length 8.70632
    axis -9.91835 -0.06569 -0.177792 xyz
    dof rx ry rz
  end
  begin
    id 15
    name LeftHand
    direction 0.992938 -0.0411636 0.11126
    length 5.32135
    axis -0.00960227 -0.00340091 0.185174 xyz
    dof rx ry rz
  end
  begin
    id 16
    name RightShoulderDummy
    direction -0.998891 -0.0402509 -0.0244414
    length 3.5433
    axis -0.00138896 0.000121452 2.39764e-006 xyz
  end
  begin
    id 17
    name RightShoulder
    direction -0.99951 -0.000327827 0.0313133
    length 4.05031
    axis 0.215806 0.000203644 -0.00680151 xyz
    dof rx ry rz
  end
  begin
    id 18
    name RightArm
    direction -0.998573 -0.000999583 -0.053403
    length 10.3947
    axis -23.2009 -0.134239 -0.9641 xyz
    dof rx ry rz
  end
  begin
    id 19
    name RightForeArm
    direction -0.998898 0.00868026 0.0461306
    length 8.68355
    axis -9.92322 0.0658061 0.178869 xyz
    dof rx ry rz
  end
  begin
    id 20
    name RightHand
    direction -0.992843 -0.0414603 0.112003
    length 5.28593
    axis -0.00960634 0.00330671 -0.185226 xyz
    dof rx ry rz
  end
  begin
    id 21
    name LeftUpLegDummy
    direction 0.718183 -0.695806 0.00816078
    length 4.904
    axis 0 0 0 xyz
  end
  begin
    id 22
    name LeftUpLeg
    direction -6.8115e-006 -0.995793 0.0916336
    length 17.4976
    axis -3.48766 0.00143441 -0.000523914 xyz
    dof rx ry rz
  end
  begin
    id 23
    name LeftLeg
    direction -0.00601357 -0.995091 -0.0987824
    length 16.5821
    axis 3.68177 -0.00654038 -0.00028478 xyz
    dof rx ry rz
  end
  begin
    id 24
    name LeftFoot
    direction -0.00417578 -0.460984 0.887399
    length 3.77069
    axis 1.87232e-006 4.66002e-005 -8.1837e-006 xyz
    dof rx ry rz
  end
  begin
    id 25
    name LeftToes
    direction 0.00818058 -0.00485161 0.999955
    length 3.85048
    axis 1.06246e-005 4.65855e-005 -8.18502e-006 xyz
    dof rx ry rz
  end
:hierarchy
  begin
    root RightUpLegDummy SpineDummy LeftUpLegDummy
    RightUpLegDummy RightUpLeg
    RightUpLeg RightLeg
    RightLeg RightFoot
    RightFoot RightToes
    SpineDummy Spine
    Spine Spine1
    Spine1 HEadDummy LeftShoulder1Dummy RightShoulderDummy
    HEadDummy HEad
    LeftShoulder1Dummy LeftShoulder1
    LeftShoulder1 LeftArm
    LeftArm LeftForeArm
    LeftForeArm LeftHand
    RightShoulderDummy RightShoulder
    RightShoulder RightArm
    RightArm RightForeArm
    RightForeArm RightHand
    LeftUpLegDummy LeftUpLeg
    LeftUpLeg LeftLeg
    LeftLeg LeftFoot
    LeftFoot LeftToes
  end

:SAMPLES-PER-SECOND 30
:FRAME-RANGE 1-3549
:FULLY-SPECIFIED
:DEGREES
111
root  -54.0528 38.0613 36.4742 16.4224 -78.8738 -15.4491
RightUpLeg  -21.0579 1.732 8.03209
RightLeg  14.0814 -14.1858 -2.04367
RightFoot  1.92694 0.193808 -1.55233
RightToes  1.218e-010 1.26228e-014 -6.01869e-014
Spine  -10.7161 -2.28051 3.38446
Spine1  11.7987 -3.23687 2.70812
HEad  30.8614 -7.50943 -4.95162
LeftShoulder1  1.75232 -3.47524 -19.6121
LeftArm  4.4709 -12.4622 -51.4302
LeftForeArm  25.2237 -12.8719 -9.18606
LeftHand  -0.100537 3.83074 6.32977
RightShoulder  1.04249 -0.268133 28.2549
RightArm  -23.1634 5.02193 50.5636
RightForeArm  70.938 -5.41239 4.38295
RightHand  0.429971 -8.05723 -19.275
LeftUpLeg  5.41343 5.40148 4.32799
LeftLeg  36.9492 -8.09304 -6.12898
LeftFoot  -6.99061 0.573724 -13.9486
LeftToes  -1.43952e-010 7.51141e-011 -1.22592e-011
112
root  -55.3728 37.9806 36.63 24.5426 -78.868 -23.9668
RightUpLeg  -20.2414 2.19388 10.2144
RightLeg  17.3457 -13.8008 -3.02538
RightFoot  -0.236451 0.317557 -3.28004
RightToes  1.218e-010 1.26228e-014 -6.01869e-014
Spine  -10.1351 -2.12346 5.39597
Spine1  12.2057 -3.0991 3.54875
HEad  30.6649 -9.10802 -4.67637
LeftShoulder1  1.78079 -3.65345 -19.341
LeftArm  1.94451 -10.6727 -52.5827
LeftForeArm  28.401 -11.3 -9.68293
LeftHand  -0.0872325 4.04191 6.0734
RightShoulder  1.23163 0.391387 27.2572
RightArm  -23.0125 8.74498 51.7063
RightForeArm  70.8038 -5.36887 4.08814
RightHand  0.277771 -7.26496 -18.0989
LeftUpLeg  -0.24136 5.33057 7.24937
LeftLeg  48.6088 -7.66708 -8.80908
LeftFoot  3.14325 2.33394 -18.3811
LeftToes  -1.43952e-010 7.51141e-011 -1.22592e-011
113
root  -56.6716 37.9176 36.81 29.5677 -79.1785 -29.3838
RightUpLeg  -18.9423 1.55733 11.4559
RightLeg  19.951 -12.5444 -3.15855
RightFoot  -3.13278 0.265277 -3.98861
RightToes  1.218e-010 1.26228e-014 -6.01869e-014
Spine  -9.38785 -1.96453 7.09959
Spine1  12.3636 -2.68462 3.57376
HEad  30.5186 -10.8547 -3.61955
LeftShoulder1  1.7618 -3.54741 -19.4685
LeftArm  1.45696 -9.12522 -52.7451
LeftForeArm  31.1528 -9.56197 -10.4173
LeftHand  -0.0866706 3.9265 5.55772
RightShoulder  1.33851 0.74451 27.0017
RightArm  -22.2687 12.3812 52.498
RightForeArm  70.6682 -5.37959 4.12074
RightHand  0.243867 -7.08032 -17.7699
LeftUpLeg  -5.88851 3.59567 8.17781
LeftLeg  56.9858 -6.21047 -9.70206
LeftFoot  14.3609 4.40112 -19.5203
LeftToes  -1.43952e-010 7.51141e-011 -1.22592e-011
114
root  -58.0859 38.0236 36.9981 32.409 -80.842 -32.706
RightUpLeg  -16.4871 0.178384 11.7833
RightLeg  21.1064 -10.2073 -2.8083
RightFoot  -5.59883 0.193998 -4.61777
RightToes  1.218e-010 1.26228e-014 -6.01869e-014
Spine  -8.7098 -1.41537 7.65909
Spine1  12.0513 -1.75912 2.87179
HEad  30.5822 -12.5058 -2.48529
LeftShoulder1  1.66829 -3.11528 -19.7611
LeftArm  1.6103 -7.45237 -52.5578
LeftForeArm  34.0008 -7.34409 -11.3199
LeftHand  -0.0781695 4.00818 5.10739
RightShoulder  1.45345 1.13868 26.6621
RightArm  -20.9256 14.7653 53.116
RightForeArm  69.2886 -5.50849 4.57515
RightHand  0.230382 -6.91875 -18.5209
LeftUpLeg  -10.0415 2.86989 8.07139
LeftLeg  62.1795 -5.4664 -10.5574
LeftFoot  10.1504 3.27117 -17.4507
LeftToes  -1.43952e-010 7.51141e-011 -1.22592e-011
115
root  -59.5251 38.1381 37.1594 34.4437 -82.6631 -35.1133
RightUpLeg  -13.8378 0.192811 11.5398
RightLeg  21.7738 -8.70127 -2.94475
RightFoot  -7.8102 0.109248 -5.24912
RightToes  1.218e-010 1.26228e-014 -6.01869e-014
Spine  -7.99002 -0.890963 7.59156
Spine1  11.2064 -0.941918 2.13181
HEad  30.9235 -14.2813 -1.44514
LeftShoulder1  1.53245 -2.56558 -19.8865
LeftArm  1.20191 -5.22143 -52.2569
LeftForeArm  37.0052 -4.8699 -12.0124
LeftHand  -0.0610134 4.35139 4.64859
RightShoulder  1.53513 1.45401 26.2054
RightArm  -19.4865 16.0009 53.6893
RightForeArm  66.9199 -2.57944 5.60819
RightHand  0.496121 -8.2731 -20.398
LeftUpLeg  -13.9114 2.09172 7.68811
LeftLeg  63.716 -4.24222 -8.68968
LeftFoot  5.13427 2.08659 -14.5645
LeftToes  -1.43952e-010 7.51141e-011 -1.22592e-011
116
root  -60.9557 38.2175 37.3129 37.2705 -84.6529 -38.1186
RightUpLeg  -11.4313 0.0600192 10.947
RightLeg  22.5438 -7.20196 -2.9703
RightFoot  -10.009 -0.00250215 -5.58841
RightToes  1.218e-010 1.26228e-014 -6.01869e-014
Spine  -7.46555 -0.394214 7.21076
Spine1  10.3912 -0.252403 1.40487
HEad  30.9623 -15.891 -0.582517
LeftShoulder1  1.41135 -2.00494 -20.3932
LeftArm  1.07824 -2.72472 -51.2108
LeftForeArm  38.6589 -2.47649 -12.5662
LeftHand  -0.0448671 4.73388 4.07917
RightShoulder  1.58059 1.64477 25.8734
RightArm  -17.6925 16.6581 54.0098
RightForeArm  66.5955 2.00261 6.97859
RightHand  0.269776 -7.05683 -19.6148
LeftUpLeg  -17.4658 1.0159 7.13761
LeftLeg  61.9929 -2.40974 -4.32999
LeftFoot  1.69061 1.42344 -12.514
LeftToes  -1.43952e-010 7.51141e-011 -1.22592e-011
117
root  -62.3686 38.2903 37.4816 46.2614 -86.6198 -47.2649
RightUpLeg  -8.90963 0.663852 10.2044
RightLeg  22.9508 -6.0327 -2.91654
RightFoot  -12.0487 -0.115071 -5.45981
RightToes  1.218e-010 1.26228e-014 -6.01869e-014
Spine  -6.99263 0.0189657 7.02698
Spine1  9.68623 0.302574 0.47411
HEad  30.5688 -17.2329 -0.0365841
LeftShoulder1  1.30502 -1.47888 -21.1385
LeftArm  0.737012 0.0776774 -49.7793
LeftForeArm  39.1287 0.0960333 -12.9689
LeftHand  -0.0379928 4.93252 3.78609
RightShoulder  1.59689 1.77563 25.3519
RightArm  -15.7513 16.8375 54.5675
RightForeArm  64.9285 6.44877 8.30056
RightHand  0.268245 -7.02518 -19.8564
LeftUpLeg  -20.3393 -0.232042 6.79299
LeftLeg  57.641 -0.339402 -0.0562678
LeftFoot  -1.7802 0.836492 -9.85788
LeftToes  -1.43952e-010 7.51141e-011 -1.22592e-011
118
root  -63.7746 38.3462 37.6271 79.4782 -88.2735 -80.601
RightUpLeg  -6.04667 1.50453 9.37421
RightLeg  22.4966 -5.06391 -2.6556
RightFoot  -13.8149 -0.20715 -5.26968
RightToes  1.218e-010 1.26228e-014 -6.01869e-014
Spine  -6.88304 0.373439 6.46853
Spine1  9.43501 0.683324 -0.202989
HEad  30.0328 -18.3552 0.226118
LeftShoulder1  1.19825 -0.982163 -21.8492
LeftArm  0.18704 3.00001 -48.3545
LeftForeArm  38.7063 2.95634 -13.2
LeftHand  -0.029921 5.22204 3.66173
RightShoulder  1.59279 1.83372 24.8963
RightArm  -10.0181 16.9496 55.1456
RightForeArm  59.7355 11.0016 8.60052
RightHand  0.148595 -6.35418 -19.3174
LeftUpLeg  -22.193 -1.63449 6.75771
LeftLeg  50.5447 1.93905 2.96856
LeftFoot  -4.56885 0.53305 -8.53588
LeftToes  -1.43952e-010 7.51141e-011 -1.22592e-011
119
root  -65.186 38.3743 37.7432 150.194 -87.9035 -151.199
RightUpLeg  -3.42272 1.87577 8.39268
RightLeg  21.9009 -3.54759 -2.01248
RightFoot  -15.5684 -0.318512 -5.77611
RightToes  1.218e-010 1.26228e-014 -6.01869e-014
Spine  -7.27877 0.656083 5.59598
Spine1  9.42227 0.907829 -0.590285
HEad  29.9017 -19.1465 0.268544
LeftShoulder1  1.10006 -0.541979 -22.5315
LeftArm  -0.717721 6.31549 -46.8714
LeftForeArm  38.2279 5.73986 -13.1589
LeftHand  -0.02193 5.56438 3.22882
RightShoulder  1.60608 1.89641 24.7743
RightArm  -2.57142 17.0055 55.5094
RightForeArm  52.8686 14.645 7.75483
RightHand  0.162251 -6.44313 -19.2149
LeftUpLeg  -22.915 -3.38278 7.21112
LeftLeg  40.4506 3.94102 3.96851
LeftFoot  -4.6297 0.558079 -9.03194
LeftToes  -1.43952e-010 7.51141e-011 -1.22592e-011
120
root  -66.6245 38.367 37.8404 172.077 -86.0027 -172.774
RightUpLeg  -0.840748 2.30992 7.49586
RightLeg  20.9891 -2.06393 -1.3867
RightFoot  -17.0499 -0.39533 -5.61394
RightToes  1.218e-010 1.26228e-014 -6.01869e-014
Spine  -8.11281 0.786375 4.64862
Spine1  9.78257 0.971624 -0.902485
HEad  29.9266 -19.65 0.358216
LeftShoulder1  0.959414 -0.00123151 -22.9752
LeftArm  -1.43673 10.0484 -45.5692
LeftForeArm  38.5083 7.62293 -13.0467
LeftHand  -0.0162627 5.95646 2.68395
RightShoulder  1.59319 1.86012 24.7385
RightArm  2.55243 16.8323 56.0068
RightForeArm  48.8198 16.7107 6.86657
RightHand  0.166846 -6.48794 -18.9586
LeftUpLeg  -22.5088 -5.59185 8.27951
LeftLeg  27.7601 5.07934 3.22794
LeftFoot  -2.05195 0.864449 -10.4682
LeftToes  -1.43952e-010 7.51141e-011 -1.22592e-011
121
root  -68.0719 38.3303 37.9054 178.237 -84.103 -178.511
RightUpLeg  1.78942 2.8126 6.71542
RightLeg  19.733 -0.770963 -0.880249
RightFoot  -18.2191 -0.481607 -5.95984
RightToes  1.218e-010 1.26228e-014 -6.01869e-014
Spine  -9.09863 0.788312 3.53277
Spine1  10.2224 0.940361 -1.15103
HEad  29.9566 -20.3145 0.667878
LeftShoulder1  0.856344 0.385705 -23.3059
LeftArm  -0.332758 13.63 -44.1551
LeftForeArm  39.3236 7.68535 -13.5819
LeftHand  -0.0154453 6.20119 2.2436
RightShoulder  1.54686 1.68198 24.9133
RightArm  5.22117 16.2152 56.1233
RightForeArm  47.3031 17.4055 6.57351
RightHand  0.150192 -6.39979 -18.7259
LeftUpLeg  -21.7282 -9.36145 9.99035
LeftLeg  14.7042 3.24886 1.50909
LeftFoot  1.50596 1.08745 -9.72399
LeftToes  -1.43952e-010 7.51141e-011 -1.22592e-011
122
root  -69.5309 38.2119 37.9691 -179.158 -82.1545 179.088
RightUpLeg  4.46158 3.5815 5.95866
RightLeg  18.8348 0.213933 -0.491072
RightFoot  -19.625 -0.573295 -6.07863
RightToes  1.218e-010 1.26228e-014 -6.01869e-014
Spine  -9.98038 0.769745 2.54344
Spine1  10.8948 1.00934 -1.53263
HEad  29.649 -21.0255 1.15541
LeftShoulder1  0.757633 0.72983 -23.3954
LeftArm  0.389186 16.9018 -43.1284
LeftForeArm  41.043 7.54843 -13.8479
LeftHand  -0.0206156 6.37249 1.45881
RightShoulder  1.50443 1.49327 25.2583
RightArm  5.30084 15.076 55.9157
RightForeArm  47.9484 16.8962 6.98132
RightHand  0.155446 -6.4338 -18.707
LeftUpLeg  -20.7468 -1.12036 6.81333
LeftLeg  4.66796 -13.11 2.84004
LeftFoot  1.41477 1.1124 -10.0107
LeftToes  -1.43952e-010 7.51141e-011 -1.22592e-011
123
root  -70.9638 38.0349 38.061 -178.523 -80.1487 178.378
RightUpLeg  6.96685 5.14275 5.35892
RightLeg  18.7816 0.662301 -0.101235
RightFoot  -21.1078 -0.620558 -5.58767
RightToes  1.218e-010 1.26228e-014 -6.01869e-014
Spine  -10.2419 0.757847 1.73439
Spine1  11.2818 1.09514 -1.78857
HEad  29.425 -22.0949 1.36516
LeftShoulder1  0.655447 1.10672 -23.8104
LeftArm  1.13565 19.5458 -42.2329
LeftForeArm  41.8443 7.42496 -14.0727
LeftHand  -0.0345172 6.13345 -0.14134
RightShoulder  1.47738 1.34876 25.6643
RightArm  2.65258 13.5098 55.1519
RightForeArm  51.3678 15.0095 8.14814
RightHand  0.0522122 -5.80404 -18.182
LeftUpLeg  -20.893 1.84737 6.52971
LeftLeg  0.761171 -18.9781 2.21884
LeftFoot  -4.09869 0.709283 -10.796
LeftToes  -1.43952e-010 7.51141e-011 -1.22592e-011
124
root  -72.4301 37.7484 38.2383 -178.048 -78.5967 177.836
RightUpLeg  8.46065 6.67647 4.71603
RightLeg  20.8698 0.894578 0.16124
RightFoot  -22.8651 -0.615831 -4.56696
RightToes  1.218e-010 1.26228e-014 -6.01869e-014
Spine  -10.2473 0.624946 1.19866
Spine1  11.2746 0.979029 -1.77993
HEad  29.2693 -23.9686 1.3369
LeftShoulder1  0.545282 1.49774 -24.1831
LeftArm  1.65853 21.3645 -41.8384
LeftForeArm  41.717 7.34353 -14.2507
LeftHand  -0.0289751 6.86499 0.604786
RightShoulder  1.41387 1.08064 26.1677
RightArm  -5.59764 12.0183 54.1764
RightForeArm  58.5736 9.85179 10.0785
RightHand  0.0648472 -5.8538 -19.1368
LeftUpLeg  -22.038 2.27177 6.50481
LeftLeg  3.61057 -19.7325 0.535975
LeftFoot  -6.71306 0.625445 -14.4225
LeftToes  -1.43952e-010 7.51141e-011 -1.22592e-011
125
root  -73.9561 37.4463 38.4338 -177.874 -77.0611 177.659
RightUpLeg  9.09465 8.84029 4.47729
RightLeg  24.7968 0.471849 0.0146575
RightFoot  -24.0755 -0.501144 -3.0294
RightToes  1.218e-010 1.26228e-014 -6.01869e-014
Spine  -10.6965 0.684638 0.901762
Spine1  11.578 1.00711 -1.61539
HEad  29.0051 -27.108 1.0984
LeftShoulder1  0.494931 1.67116 -24.3102
LeftArm  1.3361 22.4242 -42.3252
LeftForeArm  42.6714 7.31439 -14.2198
LeftHand  -0.0368532 6.19889 -0.373513
RightShoulder  1.36496 0.863132 26.6886
RightArm  -13.1012 9.79177 52.9144
RightForeArm  64.0216 4.09525 9.84469
RightHand  0.0681464 -5.85355 -19.7849
LeftUpLeg  -22.4868 -1.88096 6.7207
LeftLeg  7.70249 -16.2444 0.909411
LeftFoot  -0.754513 1.68188 -17.9785
LeftToes  -1.43952e-010 7.51141e-011 -1.22592e-011
